<mxfile host="app.diagrams.net" agent="Mozilla/5.0 (Windows NT 10.0; Win64; x64; rv:142.0) Gecko/20100101 Firefox/142.0" version="28.1.0">
  <diagram name="Seite-1" id="mUMHyt2FDMOKliGUe31f">
    <mxGraphModel dx="1426" dy="787" grid="1" gridSize="10" guides="1" tooltips="1" connect="1" arrows="1" fold="1" page="1" pageScale="1" pageWidth="827" pageHeight="1169" math="0" shadow="0">
      <root>
        <mxCell id="0" />
        <mxCell id="1" parent="0" />
        <mxCell id="59hj53T2B7-avzTeHskm-3" value="" style="rounded=1;whiteSpace=wrap;html=1;absoluteArcSize=1;arcSize=60;strokeWidth=2;" vertex="1" parent="1">
          <mxGeometry x="200" y="198" width="440" height="400" as="geometry" />
        </mxCell>
        <mxCell id="59hj53T2B7-avzTeHskm-8" value="" style="edgeStyle=orthogonalEdgeStyle;rounded=0;orthogonalLoop=1;jettySize=auto;html=1;endArrow=none;endFill=0;" edge="1" parent="1" source="59hj53T2B7-avzTeHskm-4" target="59hj53T2B7-avzTeHskm-7">
          <mxGeometry relative="1" as="geometry" />
        </mxCell>
        <mxCell id="59hj53T2B7-avzTeHskm-4" value="Fill out Login Fields" style="ellipse;whiteSpace=wrap;html=1;" vertex="1" parent="1">
          <mxGeometry x="220" y="230" width="140" height="70" as="geometry" />
        </mxCell>
        <mxCell id="59hj53T2B7-avzTeHskm-6" style="rounded=0;orthogonalLoop=1;jettySize=auto;html=1;exitX=0.5;exitY=0.5;exitDx=0;exitDy=0;exitPerimeter=0;endArrow=none;endFill=0;" edge="1" parent="1" source="59hj53T2B7-avzTeHskm-5" target="59hj53T2B7-avzTeHskm-4">
          <mxGeometry relative="1" as="geometry" />
        </mxCell>
        <mxCell id="59hj53T2B7-avzTeHskm-5" value="User" style="shape=umlActor;html=1;verticalLabelPosition=bottom;verticalAlign=top;align=center;" vertex="1" parent="1">
          <mxGeometry x="100" y="230" width="30" height="60" as="geometry" />
        </mxCell>
        <mxCell id="59hj53T2B7-avzTeHskm-12" value="" style="rounded=0;orthogonalLoop=1;jettySize=auto;html=1;endArrow=none;endFill=0;" edge="1" parent="1" source="59hj53T2B7-avzTeHskm-7" target="59hj53T2B7-avzTeHskm-11">
          <mxGeometry relative="1" as="geometry" />
        </mxCell>
        <mxCell id="59hj53T2B7-avzTeHskm-7" value="Check user Input" style="ellipse;whiteSpace=wrap;html=1;" vertex="1" parent="1">
          <mxGeometry x="440" y="230" width="140" height="70" as="geometry" />
        </mxCell>
        <mxCell id="59hj53T2B7-avzTeHskm-9" value="Login" style="text;html=1;align=center;verticalAlign=middle;resizable=0;points=[];autosize=1;strokeColor=none;fillColor=none;" vertex="1" parent="1">
          <mxGeometry x="389" y="160" width="50" height="30" as="geometry" />
        </mxCell>
        <mxCell id="59hj53T2B7-avzTeHskm-11" value="Validate User" style="ellipse;whiteSpace=wrap;html=1;" vertex="1" parent="1">
          <mxGeometry x="220" y="350" width="140" height="70" as="geometry" />
        </mxCell>
        <mxCell id="59hj53T2B7-avzTeHskm-13" value="Return/Deny Token" style="ellipse;whiteSpace=wrap;html=1;" vertex="1" parent="1">
          <mxGeometry x="440" y="363" width="140" height="70" as="geometry" />
        </mxCell>
        <mxCell id="59hj53T2B7-avzTeHskm-14" style="rounded=0;orthogonalLoop=1;jettySize=auto;html=1;exitX=1;exitY=0.5;exitDx=0;exitDy=0;entryX=-0.007;entryY=0.414;entryDx=0;entryDy=0;entryPerimeter=0;endArrow=none;endFill=0;" edge="1" parent="1" source="59hj53T2B7-avzTeHskm-11" target="59hj53T2B7-avzTeHskm-13">
          <mxGeometry relative="1" as="geometry" />
        </mxCell>
      </root>
    </mxGraphModel>
  </diagram>
</mxfile>
